<?xml version="1.0" standalone="no"?>
<svg xmlns="http://www.w3.org/2000/svg" viewBox="0 0 92 76" width="92" height="76"><g fill="#b63363" color="#b63363" transform="translate(23.973 0) scale(0.0859375) "><svg width="512.0" height="512.0" x="0.0" y="0.0" viewBox="0 0 512 512"><title></title><g><path d="M64,477c-16,0-28.83-4.79-38.08-14.24C10.93,447.46,11,425.54,11,424V88c0-51.3,52.37-53,52.9-53a5,5,0,0,1,.21,10C62.22,45.05,21,46.62,21,88V424.1c0,.18-.17,19.24,12.12,31.72C40.42,463.24,50.81,467,64,467a5,5,0,0,1,0,10Z"></path><path d="M449,477a5,5,0,0,1-.11-10c1.89-.05,43.11-1.62,43.11-43V87.9c0-.18.17-19.24-12.12-31.72C472.58,48.76,462.19,45,449,45a5,5,0,0,1,0-10c16,0,28.83,4.79,38.08,14.24C502.07,64.54,502,86.46,502,88V424c0,51.3-52.37,53-52.9,53Z"></path><path d="M145,126a5,5,0,0,1-5-5V73a5,5,0,0,1,10,0v48A5,5,0,0,1,145,126Z"></path><path d="M80,206a5,5,0,0,1-5-5V153a5,5,0,0,1,10,0v48A5,5,0,0,1,80,206Z"></path><path d="M209,206a5,5,0,0,1-5-5V153a5,5,0,0,1,10,0v48A5,5,0,0,1,209,206Z"></path><path d="M209,287a5,5,0,0,1-5-5V234a5,5,0,0,1,10,0v48A5,5,0,0,1,209,287Z"></path><path d="M144,445a5,5,0,0,1-5-5V392a5,5,0,0,1,10,0v48A5,5,0,0,1,144,445Z"></path><path d="M81,128c-16.14,0-22-13.16-22-22V89c0-8.84,5.86-22,22-22s22,13.16,22,22v17C103,114.84,97.14,128,81,128Zm0-51c-5,0-8.33,1.8-10.28,5.49A16.25,16.25,0,0,0,69,89v17a16.27,16.27,0,0,0,1.72,6.51C72.67,116.2,76,118,81,118s8.33-1.8,10.28-5.49A16.25,16.25,0,0,0,93,106V89a16.27,16.27,0,0,0-1.72-6.51C89.33,78.8,86,77,81,77Zm17,29h0Z"></path><path d="M209,128c-16.14,0-22-13.16-22-22V89c0-8.84,5.86-22,22-22s22,13.16,22,22v17C231,114.84,225.14,128,209,128Zm0-51c-5,0-8.33,1.8-10.28,5.49A16.25,16.25,0,0,0,197,89v17a16.27,16.27,0,0,0,1.72,6.51C200.67,116.2,204,118,209,118s8.33-1.8,10.28-5.49A16.25,16.25,0,0,0,221,106V89a16.27,16.27,0,0,0-1.72-6.51C217.33,78.8,214,77,209,77Zm17,29h0Z"></path><path d="M432,206a5,5,0,0,1-5-5V153a5,5,0,0,1,10,0v48A5,5,0,0,1,432,206Z"></path><path d="M432,445a5,5,0,0,1-5-5V392a5,5,0,0,1,10,0v48A5,5,0,0,1,432,445Z"></path><path d="M432,128c-16.14,0-22-13.16-22-22V89c0-8.84,5.86-22,22-22s22,13.16,22,22v17C454,114.84,448.14,128,432,128Zm0-51c-5,0-8.33,1.8-10.28,5.49A16.25,16.25,0,0,0,420,89v17a16.27,16.27,0,0,0,1.72,6.51C423.67,116.2,427,118,432,118s8.33-1.8,10.28-5.49A16.25,16.25,0,0,0,444,106V89a16.27,16.27,0,0,0-1.72-6.51C440.33,78.8,437,77,432,77Zm17,29h0Z"></path><path d="M432,286c-16.14,0-22-13.16-22-22V247c0-8.84,5.86-22,22-22s22,13.16,22,22v17C454,272.84,448.14,286,432,286Zm0-51c-5,0-8.33,1.8-10.28,5.49A16.25,16.25,0,0,0,420,247v17a16.27,16.27,0,0,0,1.72,6.51C423.67,274.2,427,276,432,276s8.33-1.8,10.28-5.49A16.25,16.25,0,0,0,444,264V247a16.27,16.27,0,0,0-1.72-6.51C440.33,236.8,437,235,432,235Zm17,29h0Z"></path><path d="M144,206c-16.14,0-22-13.16-22-22V167c0-8.84,5.86-22,22-22s22,13.16,22,22v17C166,192.84,160.14,206,144,206Zm0-51c-5,0-8.33,1.8-10.28,5.49A16.25,16.25,0,0,0,132,167v17a16.27,16.27,0,0,0,1.72,6.51C135.67,194.2,139,196,144,196s8.33-1.8,10.28-5.49A16.25,16.25,0,0,0,156,184V167a16.27,16.27,0,0,0-1.72-6.51C152.33,156.8,149,155,144,155Zm17,29h0Z"></path><path d="M144,287c-16.14,0-22-13.16-22-22V248c0-8.84,5.86-22,22-22s22,13.16,22,22v17C166,273.84,160.14,287,144,287Zm0-51c-5,0-8.33,1.8-10.28,5.49A16.25,16.25,0,0,0,132,248v17a16.27,16.27,0,0,0,1.72,6.51C135.67,275.2,139,277,144,277s8.33-1.8,10.28-5.49A16.25,16.25,0,0,0,156,265V248a16.27,16.27,0,0,0-1.72-6.51C152.33,237.8,149,236,144,236Zm17,29h0Z"></path><path d="M81,287c-16.14,0-22-13.16-22-22V248c0-8.84,5.86-22,22-22s22,13.16,22,22v17C103,273.84,97.14,287,81,287Zm0-51c-5,0-8.33,1.8-10.28,5.49A16.25,16.25,0,0,0,69,248v17a16.27,16.27,0,0,0,1.72,6.51C72.67,275.2,76,277,81,277s8.33-1.8,10.28-5.49A16.25,16.25,0,0,0,93,265V248a16.27,16.27,0,0,0-1.72-6.51C89.33,237.8,86,236,81,236Zm17,29h0Z"></path><path d="M209,446c-16.14,0-22-13.16-22-22V407c0-8.84,5.86-22,22-22s22,13.16,22,22v17C231,432.84,225.14,446,209,446Zm0-51c-5,0-8.33,1.8-10.28,5.49A16.25,16.25,0,0,0,197,407v17a16.27,16.27,0,0,0,1.72,6.51C200.67,434.2,204,436,209,436s8.33-1.8,10.28-5.49A16.25,16.25,0,0,0,221,424V407a16.27,16.27,0,0,0-1.72-6.51C217.33,396.8,214,395,209,395Zm17,29h0Z"></path><path d="M80,446c-16.14,0-22-13.16-22-22V407c0-8.84,5.86-22,22-22s22,13.16,22,22v17C102,432.84,96.14,446,80,446Zm0-51c-5,0-8.33,1.8-10.28,5.49A16.25,16.25,0,0,0,68,407v17a16.27,16.27,0,0,0,1.72,6.51C71.67,434.2,75,436,80,436s8.33-1.8,10.28-5.49A16.25,16.25,0,0,0,92,424V407a16.27,16.27,0,0,0-1.72-6.51C88.33,396.8,85,395,80,395Zm17,29h0Z"></path><path d="M363,101h-1a5,5,0,0,1,0-10h1a5,5,0,0,1,0,10Zm-21,0h-1a5,5,0,0,1,0-10h1a5,5,0,0,1,0,10Zm-21,0h-1a5,5,0,0,1,0-10h1a5,5,0,0,1,0,10Zm-21,0h-1a5,5,0,0,1,0-10h1a5,5,0,0,1,0,10Zm-21,0h-1a5,5,0,0,1,0-10h1a5,5,0,0,1,0,10Zm-21,0h-1a5,5,0,0,1,0-10h1a5,5,0,0,1,0,10Z"></path><path d="M363,181h-1a5,5,0,0,1,0-10h1a5,5,0,0,1,0,10Zm-21,0h-1a5,5,0,0,1,0-10h1a5,5,0,0,1,0,10Zm-21,0h-1a5,5,0,0,1,0-10h1a5,5,0,0,1,0,10Zm-21,0h-1a5,5,0,0,1,0-10h1a5,5,0,0,1,0,10Zm-21,0h-1a5,5,0,0,1,0-10h1a5,5,0,0,1,0,10Zm-21,0h-1a5,5,0,0,1,0-10h1a5,5,0,0,1,0,10Z"></path><path d="M363,261h-1a5,5,0,0,1,0-10h1a5,5,0,0,1,0,10Zm-21,0h-1a5,5,0,0,1,0-10h1a5,5,0,0,1,0,10Zm-21,0h-1a5,5,0,0,1,0-10h1a5,5,0,0,1,0,10Zm-21,0h-1a5,5,0,0,1,0-10h1a5,5,0,0,1,0,10Zm-21,0h-1a5,5,0,0,1,0-10h1a5,5,0,0,1,0,10Zm-21,0h-1a5,5,0,0,1,0-10h1a5,5,0,0,1,0,10Z"></path><path d="M363,421h-1a5,5,0,0,1,0-10h1a5,5,0,0,1,0,10Zm-21,0h-1a5,5,0,0,1,0-10h1a5,5,0,0,1,0,10Zm-21,0h-1a5,5,0,0,1,0-10h1a5,5,0,0,1,0,10Zm-21,0h-1a5,5,0,0,1,0-10h1a5,5,0,0,1,0,10Zm-21,0h-1a5,5,0,0,1,0-10h1a5,5,0,0,1,0,10Zm-21,0h-1a5,5,0,0,1,0-10h1a5,5,0,0,1,0,10Z"></path><path d="M432,342a5,5,0,0,1-5-5v-1a5,5,0,0,1,10,0v1A5,5,0,0,1,432,342Zm0-21a5,5,0,0,1-5-5v-1a5,5,0,0,1,10,0v1A5,5,0,0,1,432,321Z"></path><path d="M209,342a5,5,0,0,1-5-5v-1a5,5,0,0,1,10,0v1A5,5,0,0,1,209,342Zm0-21a5,5,0,0,1-5-5v-1a5,5,0,0,1,10,0v1A5,5,0,0,1,209,321Z"></path><path d="M144,342a5,5,0,0,1-5-5v-1a5,5,0,0,1,10,0v1A5,5,0,0,1,144,342Zm0-21a5,5,0,0,1-5-5v-1a5,5,0,0,1,10,0v1A5,5,0,0,1,144,321Z"></path><path d="M81,342a5,5,0,0,1-5-5v-1a5,5,0,0,1,10,0v1A5,5,0,0,1,81,342Zm0-21a5,5,0,0,1-5-5v-1a5,5,0,0,1,10,0v1A5,5,0,0,1,81,321Z"></path></g></svg></g><path fill="#33a8a3" fill-rule="nonzero" d="M9.48 17.02L8.16 17.02L8.16 8.95Q8.16 7.44 7.52 6.76Q6.89 6.07 5.71 6.07L5.71 6.07Q5.23 6.07 4.73 6.23Q4.22 6.38 3.76 6.70Q3.29 7.01 2.90 7.44Q2.52 7.87 2.28 8.42L2.28 8.42L2.28 8.54L2.28 17.02L0.96 17.02L0.96 8.54Q0.96 7.58 0.72 6.89Q0.48 6.19 0 5.69L0 5.69L0.82 4.90Q1.37 5.30 1.67 5.84Q1.97 6.38 2.11 7.01L2.11 7.01Q2.76 5.90 3.73 5.36Q4.70 4.82 5.86 4.82L5.86 4.82Q7.03 4.82 7.92 5.38Q8.81 5.93 9.22 7.06L9.22 7.06Q9.91 5.90 10.92 5.36Q11.93 4.82 12.91 4.82L12.91 4.82Q14.64 4.82 15.68 5.83Q16.73 6.84 16.73 8.69L16.73 8.69Q16.73 9.55 16.69 10.26Q16.66 10.97 16.62 11.59Q16.58 12.22 16.55 12.79Q16.51 13.37 16.51 13.94L16.51 13.94Q16.51 14.74 16.63 15.46Q16.75 16.18 17.09 17.02L17.09 17.02L15.82 17.02Q15.43 16.30 15.31 15.40Q15.19 14.50 15.19 13.80L15.19 13.80Q15.19 13.22 15.22 12.72Q15.24 12.22 15.28 11.65Q15.31 11.09 15.35 10.44Q15.38 9.79 15.38 8.95L15.38 8.95Q15.38 7.46 14.77 6.77Q14.16 6.07 12.94 6.07L12.94 6.07Q10.73 6.07 9.48 8.45L9.48 8.45L9.48 8.69L9.48 17.02ZM23.21 17.26L23.21 17.26Q22.39 17.26 21.68 17.04Q20.98 16.82 20.46 16.39Q19.94 15.96 19.66 15.31Q19.37 14.66 19.37 13.82L19.37 13.82Q19.37 12.82 19.81 12.14Q20.26 11.47 20.98 11.05Q21.70 10.63 22.60 10.46Q23.50 10.30 24.43 10.30L24.43 10.30L26.76 10.30L26.76 8.95Q26.76 7.46 26.16 6.77Q25.56 6.07 24.26 6.07L24.26 6.07Q23.30 6.07 22.32 6.48Q21.34 6.89 20.71 7.37L20.71 7.37L20.06 6.36Q20.76 5.74 21.90 5.28Q23.04 4.82 24.26 4.82L24.26 4.82Q26.28 4.82 27.18 5.84Q28.08 6.86 28.08 8.69L28.08 8.69L28.08 13.56Q28.08 15.41 29.02 16.42L29.02 16.42L28.20 17.21Q27.70 16.82 27.41 16.33Q27.12 15.84 26.95 15.29L26.95 15.29Q26.50 16.20 25.56 16.73Q24.62 17.26 23.21 17.26ZM23.21 16.01L23.21 16.01Q23.93 16.01 24.55 15.80Q25.18 15.60 25.67 15.22Q26.16 14.83 26.45 14.26Q26.74 13.68 26.76 12.94L26.76 12.94L26.76 11.52L24.43 11.52Q23.76 11.52 23.10 11.60Q22.44 11.69 21.91 11.94Q21.38 12.19 21.06 12.65Q20.74 13.10 20.74 13.82L20.74 13.82Q20.74 15.02 21.38 15.52Q22.03 16.01 23.21 16.01ZM32.50 13.58L32.50 4.92Q32.50 3.96 32.26 3.26Q32.02 2.57 31.54 2.06L31.54 2.06L32.35 1.27Q32.81 1.61 33.08 2.03Q33.36 2.45 33.53 2.93Q33.70 3.41 33.76 3.91Q33.82 4.42 33.82 4.92L33.82 4.92L33.82 5.06L37.61 5.06L37.61 6.38L33.82 6.38L33.82 13.58Q33.82 14.28 33.96 14.75Q34.10 15.22 34.34 15.49Q34.58 15.77 34.92 15.89Q35.26 16.01 35.62 16.01L35.62 16.01Q36.05 16.01 36.53 15.88Q37.01 15.74 37.44 15.56Q37.87 15.38 38.22 15.18Q38.57 14.98 38.78 14.86L38.78 14.86L39.41 15.86Q39.22 16.01 38.80 16.25Q38.38 16.49 37.82 16.72Q37.27 16.94 36.64 17.10Q36 17.26 35.38 17.26L35.38 17.26Q34.80 17.26 34.28 17.08Q33.77 16.90 33.37 16.48Q32.98 16.06 32.74 15.35Q32.50 14.64 32.50 13.58L32.50 13.58ZM48.02 5.02L48.02 6.26Q47.81 6.24 47.54 6.19L47.54 6.19Q47.33 6.14 47.05 6.12Q46.78 6.10 46.44 6.10L46.44 6.10Q45.46 6.10 44.66 6.72Q43.87 7.34 43.25 8.45L43.25 8.45L43.25 8.54L43.25 17.02L41.93 17.02L41.93 8.54Q41.93 7.58 41.69 6.89Q41.45 6.19 40.97 5.69L40.97 5.69L41.78 4.90Q42.34 5.30 42.65 5.84Q42.96 6.38 43.10 7.01L43.10 7.01Q43.73 5.90 44.57 5.36Q45.41 4.82 46.61 4.82L46.61 4.82Q46.87 4.82 47.14 4.85Q47.40 4.87 47.59 4.92L47.59 4.92Q47.83 4.97 48.02 5.02L48.02 5.02ZM49.82 5.69L50.64 4.90Q51.10 5.23 51.37 5.65Q51.65 6.07 51.82 6.55Q51.98 7.03 52.04 7.54Q52.10 8.04 52.10 8.54L52.10 8.54L52.10 17.02L50.78 17.02L50.78 8.54Q50.78 7.58 50.54 6.89Q50.30 6.19 49.82 5.69L49.82 5.69ZM50.14 1.13L50.14 1.13Q50.14 0.65 50.46 0.32Q50.78 0 51.24 0L51.24 0Q51.72 0 52.04 0.32Q52.37 0.65 52.37 1.13L52.37 1.13Q52.37 1.58 52.04 1.91Q51.72 2.23 51.24 2.23L51.24 2.23Q50.78 2.23 50.46 1.91Q50.14 1.58 50.14 1.13ZM56.71 17.02L55.25 17.02L57.98 10.63Q57.43 10.10 57.10 9.44Q56.76 8.78 56.57 8.23L56.57 8.23L55.49 5.35L56.76 4.97L57.86 7.87Q58.03 8.30 58.22 8.69Q58.42 9.07 58.70 9.38Q58.99 9.70 59.40 9.94Q59.81 10.18 60.38 10.32L60.38 10.32Q60.41 10.34 60.48 10.34L60.48 10.34L62.88 4.97L64.15 5.35L61.70 10.94Q62.40 11.42 62.76 12.10Q63.12 12.77 63.34 13.39L63.34 13.39L64.58 17.02L63.17 17.02L62.04 13.75Q61.68 12.67 61.04 12.14Q60.41 11.62 59.33 11.35L59.33 11.35Q59.26 11.35 59.16 11.30L59.16 11.30L56.71 17.02ZM72.60 17.26L72.60 17.26Q71.26 17.26 70.15 16.80Q69.05 16.34 68.27 15.52Q67.49 14.69 67.06 13.56Q66.62 12.43 66.62 11.09L66.62 11.09Q66.62 9.74 67.06 8.60Q67.49 7.46 68.27 6.62Q69.05 5.78 70.15 5.30Q71.26 4.82 72.60 4.82L72.60 4.82Q73.94 4.82 75.04 5.29Q76.13 5.76 76.91 6.59Q77.69 7.42 78.12 8.56Q78.55 9.70 78.55 11.02L78.55 11.02Q78.55 12.36 78.12 13.51Q77.69 14.66 76.91 15.49Q76.13 16.32 75.04 16.79Q73.94 17.26 72.60 17.26ZM72.60 6.07L72.60 6.07Q71.54 6.07 70.70 6.43Q69.86 6.79 69.25 7.44Q68.64 8.09 68.32 9.00Q67.99 9.91 67.99 11.02L67.99 11.02Q67.99 12.14 68.32 13.07Q68.64 13.99 69.25 14.64Q69.86 15.29 70.70 15.65Q71.54 16.01 72.60 16.01L72.60 16.01Q73.63 16.01 74.48 15.64Q75.34 15.26 75.94 14.60Q76.54 13.94 76.86 13.02Q77.18 12.10 77.18 10.97L77.18 10.97Q77.18 9.86 76.86 8.96Q76.54 8.06 75.94 7.42Q75.34 6.77 74.48 6.42Q73.63 6.07 72.60 6.07ZM86.83 4.82L86.83 4.82Q88.06 4.82 89.00 5.30Q89.95 5.78 90.61 6.62Q91.27 7.46 91.61 8.58Q91.94 9.70 91.94 10.99L91.94 10.99Q91.94 12.34 91.55 13.48Q91.15 14.62 90.42 15.46Q89.69 16.30 88.66 16.78Q87.62 17.26 86.35 17.26L86.35 17.26Q85.34 17.26 84.56 17.18Q83.78 17.11 83.23 17.04L83.23 17.04L83.23 23.02L81.91 23.02L81.91 8.54Q81.91 7.58 81.67 6.89Q81.43 6.19 80.95 5.69L80.95 5.69L81.77 4.90Q82.30 5.30 82.60 5.81Q82.90 6.31 83.04 6.91L83.04 6.91Q83.54 5.93 84.54 5.38Q85.54 4.82 86.83 4.82ZM86.83 6.07L86.83 6.07Q86.23 6.07 85.63 6.26Q85.03 6.46 84.53 6.84Q84.02 7.22 83.66 7.80Q83.30 8.38 83.23 9.14L83.23 9.14L83.23 15.79Q83.66 15.84 84.50 15.92Q85.34 16.01 86.33 16.01L86.33 16.01Q87.29 16.01 88.07 15.65Q88.85 15.29 89.41 14.64Q89.98 13.99 90.28 13.08Q90.58 12.17 90.58 11.06L90.58 11.06Q90.58 10.10 90.34 9.19Q90.10 8.28 89.63 7.60Q89.16 6.91 88.46 6.49Q87.77 6.07 86.83 6.07Z" transform="translate(0, 52)"></path></svg>